<svg width="1200" height="628" viewBox="0 0 197 38" fill="none" xmlns="http://www.w3.org/2000/svg">
<g clip-path="url(#clip0_3_13)">
<path d="M0 23.3532C0 12.1386 8.10252 3.43396 20.3288 3.43396C30.3278 3.43396 36.203 9.20643 36.203 17.5808C36.203 28.7937 28.1005 37.5 15.8742 37.5C5.87693 37.5 0 31.7276 0 23.3532ZM29.9969 17.9588C29.9969 12.5184 26.395 8.82671 19.7609 8.82671C11.4213 8.82671 6.20779 15.3092 6.20779 22.9735C6.20779 28.4139 9.76191 32.1056 16.3961 32.1056C24.7356 32.1056 29.9969 25.6231 29.9969 17.9588Z" fill="black"/>
<path d="M55.7797 11.4762L54.6899 17.1073C54.168 17.012 53.7894 16.966 53.2215 16.966C48.5776 16.966 45.4976 19.3312 44.4556 24.5843L41.9435 37.0283H36.0205L41.043 11.7623H46.6829L46.0195 15.0265C48.3423 12.377 51.5161 11.4779 55.7814 11.4779L55.7797 11.4762Z" fill="black"/>
<path d="M84.6732 1.92017L77.6604 37.0267H72.0223L72.5441 34.4248C70.4123 36.2706 67.6632 37.3587 64.3461 37.3587C58.0905 37.3587 53.2096 33.2431 53.2096 26.2395C53.2096 17.6284 59.3219 11.4779 67.4261 11.4779C71.3588 11.4779 74.3928 12.8027 76.0505 15.4046L78.7519 1.92017H84.6749H84.6732ZM74.5327 22.8339C74.5327 18.9072 72.1161 16.4944 67.8508 16.4944C62.8283 16.4944 59.1786 20.375 59.1786 25.9568C59.1786 29.8834 61.5952 32.2963 65.8605 32.2963C70.883 32.2963 74.5327 28.4156 74.5327 22.8339Z" fill="black"/>
<path d="M86.8527 11.7606H92.7757L87.7532 37.0266H81.8302L86.8527 11.7606ZM87.6116 4.28531C87.6116 2.15682 89.2233 0.5 91.6399 0.5C93.7717 0.5 95.194 1.92013 95.194 3.6706C95.194 5.98981 93.5824 7.59724 91.1658 7.59724C89.034 7.59724 87.6116 6.08346 87.6116 4.28531Z" fill="black"/>
<path d="M137.206 19.8982C137.206 20.845 137.11 21.8854 136.875 23.0212L134.08 37.0266H128.157L130.952 23.1642C131.093 22.4541 131.141 21.7917 131.141 21.177C131.141 18.2431 129.577 16.6357 126.308 16.6357C122.232 16.6357 119.532 18.9532 118.536 23.8743L115.883 37.0283H109.96L112.755 23.1659C112.896 22.4558 112.944 21.7934 112.944 21.1787C112.944 18.2448 111.38 16.6374 108.111 16.6374C104.035 16.6374 101.335 18.9549 100.339 23.9236L97.6857 37.03H91.7627L96.7852 11.764H102.423L101.901 14.5089C104.129 12.4264 107.02 11.4813 110.195 11.4813C113.845 11.4813 116.688 12.9015 118.062 15.6447C120.62 12.8998 123.985 11.4813 128.061 11.4813C133.653 11.4813 137.207 14.4152 137.207 19.9033L137.206 19.8982Z" fill="black"/>
<path d="M143.078 11.7606H149.001L143.978 37.0266H138.055L143.078 11.7606ZM143.836 4.28531C143.836 2.15682 145.448 0.5 147.865 0.5C149.996 0.5 151.419 1.92013 151.419 3.6706C151.419 5.98981 149.807 7.59724 147.391 7.59724C145.259 7.59724 143.836 6.08346 143.836 4.28531Z" fill="black"/>
<path d="M176.066 19.9936C176.066 20.9403 175.924 21.9331 175.735 23.0211L172.94 37.0266H167.017L169.766 23.1642C169.907 22.4541 169.955 21.7917 169.955 21.2247C169.955 18.2908 168.344 16.6357 164.885 16.6357C160.572 16.6357 157.587 19.0008 156.591 23.9219L153.938 37.0283H148.015L153.037 11.7623H158.677L158.109 14.5531C160.432 12.4706 163.464 11.4779 166.829 11.4779C172.421 11.4779 176.069 14.4595 176.069 19.9953L176.066 19.9936Z" fill="black"/>
<path d="M186.072 28.5569C186.024 28.935 185.976 29.313 185.976 29.645C185.976 31.3955 186.877 32.4836 188.962 32.4836C190.1 32.4836 191.285 32.1532 192.279 31.4891L193.321 35.8415C191.52 36.9773 189.293 37.3553 187.209 37.3553C182.896 37.3553 179.959 34.8471 179.959 30.5901C179.959 29.9754 180.007 29.313 180.149 28.6029L182.565 16.6799H178.443L179.391 11.9479H183.513L184.651 6.17542H190.574L189.389 11.9479H196.212L195.264 16.6799H188.44L186.072 28.5552V28.5569Z" fill="black"/>
</g>
<defs>
<clipPath id="clip0_3_13">
<rect width="196.212" height="37" fill="black" transform="translate(0 0.5)"/>
</clipPath>
</defs>
</svg>
